<svg width="100" height="100" viewBox="0 0 100 100" xmlns="http://www.w3.org/2000/svg">
  <!-- Background Circle -->
  <circle cx="50" cy="50" r="48" fill="#F0F0F0" stroke="#333" stroke-width="2"/>

  <!-- File Icon -->
  <rect x="30" y="25" width="40" height="50" rx="5" ry="5" fill="#4A90E2" stroke="#333" stroke-width="2"/>
  <rect x="34" y="29" width="32" height="6" fill="#FFF"/>
  <rect x="34" y="39" width="32" height="6" fill="#FFF"/>
  <rect x="34" y="49" width="32" height="6" fill="#FFF"/>

  <!-- Cloud Symbol -->
  <path d="M50,65 C45,65 42,62 42,58 C42,55 45,53 48,53 C49,50 52,49 55,49 C59,49 62,52 62,55 C62,57 61,59 60,60 C59,62 58,63 56,64 C54,64 52,65 50,65 Z" fill="#FFD700" stroke="#333" stroke-width="2"/>

  <!-- Sparkle Symbol (Representing creativity) -->
  <polygon points="50,20 53,28 61,28 54,32 57,40 50,34 43,40 46,32 39,28 47,28" fill="#FF6F61"/>

</svg>
